<svg id="Layer_1" data-name="Layer 1" xmlns="http://www.w3.org/2000/svg" viewBox="0 0 201.87 48.96"><defs><style>.cls-1{fill:#f3bb18;}</style></defs><polygon class="cls-1" points="148.25 11.98 131.43 25.29 131.43 11.98 148.25 11.98"/><polygon class="cls-1" points="139.23 26.08 149.46 18.04 149.46 26.08 139.23 26.08"/><rect class="cls-1" x="131.43" y="32.02" width="18.03" height="4.96"/><polygon class="cls-1" points="176.43 11.98 176.43 26.08 158.08 26.08 158.08 11.98 162.93 11.98 162.93 23.08 171.59 23.08 171.59 11.98 176.43 11.98"/><polygon class="cls-1" points="176.43 32.02 176.43 36.98 171.59 36.98 171.59 35.03 162.93 35.03 162.93 36.98 158.08 36.98 158.08 32.02 176.43 32.02"/><path class="cls-1" d="M33.9,35.56A15.6,15.6,0,0,0,36.25,37H25.44V12H36.07a15.7,15.7,0,0,0-2.19,1.32,13.36,13.36,0,0,0-2.7,2.54,11,11,0,0,0-1.55,2.79,13.41,13.41,0,0,0-.76,2.7,17.68,17.68,0,0,0-.17,2.48V25a17.82,17.82,0,0,0,.17,2.46,13.37,13.37,0,0,0,.76,2.72A11.49,11.49,0,0,0,31.18,33,13.34,13.34,0,0,0,33.9,35.56Z"/><path class="cls-1" d="M64.46,22a7.2,7.2,0,0,1,.3,2.1v.56a6.77,6.77,0,0,1-.54,2.69,7.45,7.45,0,0,1-1.88,2.52,9.58,9.58,0,0,1-4,2,23.56,23.56,0,0,1-5.61.72h-1a23.58,23.58,0,0,1-6-.75,9.09,9.09,0,0,1-4-2,7.87,7.87,0,0,1-1.84-2.54,6.77,6.77,0,0,1-.54-2.69v-.48q0-7.5,12.26-7.72h1.35a25.91,25.91,0,0,1,4.44.48,14.07,14.07,0,0,1,3.76,1.25,7.3,7.3,0,0,1,2.24,1.82A6.24,6.24,0,0,1,64.46,22Z"/><path class="cls-1" d="M67.9,12H79.09V37H67.76a15,15,0,0,0,2.34-1.42A12.46,12.46,0,0,0,72.8,33a12.62,12.62,0,0,0,1.56-2.81,12.93,12.93,0,0,0,.78-2.72A17.82,17.82,0,0,0,75.31,25V23.81a18.08,18.08,0,0,0-.17-2.5,12.63,12.63,0,0,0-.78-2.7,11.83,11.83,0,0,0-1.58-2.77,13.36,13.36,0,0,0-2.7-2.54A16,16,0,0,0,67.9,12Z"/><path class="cls-1" d="M112.62,24.21v.24q0,7.62-13,7.62H89.19V16.62H99.67Q112.62,16.62,112.62,24.21Z"/><path class="cls-1" d="M125.43,12V37h-11a16.31,16.31,0,0,0,2.17-1,13.29,13.29,0,0,0,4-3.38,11.38,11.38,0,0,0,2.06-3.83,14.47,14.47,0,0,0,.52-4V23.61a13.45,13.45,0,0,0-.41-3.36,14.2,14.2,0,0,0-1.32-3.19,9.32,9.32,0,0,0-2.65-2.92A19.58,19.58,0,0,0,115.08,12Z"/></svg>